<svg viewBox="0 0 737.5567626953125 400" xmlns="http://www.w3.org/2000/svg"><g><g><g><g><g><line x1="46" y1="378" x2="41" y2="378" style="visibility: inherit;" fill="rgb(0, 0, 0)" stroke="rgb(204, 204, 204)" stroke-width="1px"></line><line x1="46" y1="348.9230769230769" x2="41" y2="348.9230769230769" style="visibility: inherit;" fill="rgb(0, 0, 0)" stroke="rgb(204, 204, 204)" stroke-width="1px"></line><line x1="46" y1="319.8461538461538" x2="41" y2="319.8461538461538" style="visibility: inherit;" fill="rgb(0, 0, 0)" stroke="rgb(204, 204, 204)" stroke-width="1px"></line><line x1="46" y1="290.7692307692308" x2="41" y2="290.7692307692308" style="visibility: inherit;" fill="rgb(0, 0, 0)" stroke="rgb(204, 204, 204)" stroke-width="1px"></line><line x1="46" y1="261.6923076923077" x2="41" y2="261.6923076923077" style="visibility: inherit;" fill="rgb(0, 0, 0)" stroke="rgb(204, 204, 204)" stroke-width="1px"></line><line x1="46" y1="232.6153846153846" x2="41" y2="232.6153846153846" style="visibility: inherit;" fill="rgb(0, 0, 0)" stroke="rgb(204, 204, 204)" stroke-width="1px"></line><line x1="46" y1="203.53846153846152" x2="41" y2="203.53846153846152" style="visibility: inherit;" fill="rgb(0, 0, 0)" stroke="rgb(204, 204, 204)" stroke-width="1px"></line><line x1="46" y1="174.46153846153848" x2="41" y2="174.46153846153848" style="visibility: inherit;" fill="rgb(0, 0, 0)" stroke="rgb(204, 204, 204)" stroke-width="1px"></line><line x1="46" y1="145.38461538461536" x2="41" y2="145.38461538461536" style="visibility: inherit;" fill="rgb(0, 0, 0)" stroke="rgb(204, 204, 204)" stroke-width="1px"></line><line x1="46" y1="116.30769230769232" x2="41" y2="116.30769230769232" style="visibility: inherit;" fill="rgb(0, 0, 0)" stroke="rgb(204, 204, 204)" stroke-width="1px"></line><line x1="46" y1="87.23076923076923" x2="41" y2="87.23076923076923" style="visibility: inherit;" fill="rgb(0, 0, 0)" stroke="rgb(204, 204, 204)" stroke-width="1px"></line><line x1="46" y1="58.15384615384613" x2="41" y2="58.15384615384613" style="visibility: inherit;" fill="rgb(0, 0, 0)" stroke="rgb(204, 204, 204)" stroke-width="1px"></line><line x1="46" y1="29.076923076923038" x2="41" y2="29.076923076923038" style="visibility: inherit;" fill="rgb(0, 0, 0)" stroke="rgb(204, 204, 204)" stroke-width="1px"></line><line x1="46" y1="0" x2="41" y2="0" style="visibility: inherit;" fill="rgb(0, 0, 0)" stroke="rgb(204, 204, 204)" stroke-width="1px"></line></g><g transform="translate(36, 0)"><text x="0" y="378" dx="0em" dy="0.3em" style="text-anchor: end; visibility: hidden; font-family: &quot;Helvetica Neue&quot;, sans-serif; font-size: 12px; font-weight: 200;" fill="rgb(50, 49, 63)" stroke="none" stroke-width="1px">-20</text><text x="0" y="348.9230769230769" dx="0em" dy="0.3em" style="text-anchor: end; visibility: inherit; font-family: &quot;Helvetica Neue&quot;, sans-serif; font-size: 12px; font-weight: 200;" fill="rgb(50, 49, 63)" stroke="none" stroke-width="1px">0</text><text x="0" y="319.8461538461538" dx="0em" dy="0.3em" style="text-anchor: end; visibility: inherit; font-family: &quot;Helvetica Neue&quot;, sans-serif; font-size: 12px; font-weight: 200;" fill="rgb(50, 49, 63)" stroke="none" stroke-width="1px">20</text><text x="0" y="290.7692307692308" dx="0em" dy="0.3em" style="text-anchor: end; visibility: inherit; font-family: &quot;Helvetica Neue&quot;, sans-serif; font-size: 12px; font-weight: 200;" fill="rgb(50, 49, 63)" stroke="none" stroke-width="1px">40</text><text x="0" y="261.6923076923077" dx="0em" dy="0.3em" style="text-anchor: end; visibility: inherit; font-family: &quot;Helvetica Neue&quot;, sans-serif; font-size: 12px; font-weight: 200;" fill="rgb(50, 49, 63)" stroke="none" stroke-width="1px">60</text><text x="0" y="232.6153846153846" dx="0em" dy="0.3em" style="text-anchor: end; visibility: inherit; font-family: &quot;Helvetica Neue&quot;, sans-serif; font-size: 12px; font-weight: 200;" fill="rgb(50, 49, 63)" stroke="none" stroke-width="1px">80</text><text x="0" y="203.53846153846152" dx="0em" dy="0.3em" style="text-anchor: end; visibility: inherit; font-family: &quot;Helvetica Neue&quot;, sans-serif; font-size: 12px; font-weight: 200;" fill="rgb(50, 49, 63)" stroke="none" stroke-width="1px">100</text><text x="0" y="174.46153846153848" dx="0em" dy="0.3em" style="text-anchor: end; visibility: inherit; font-family: &quot;Helvetica Neue&quot;, sans-serif; font-size: 12px; font-weight: 200;" fill="rgb(50, 49, 63)" stroke="none" stroke-width="1px">120</text><text x="0" y="145.38461538461536" dx="0em" dy="0.3em" style="text-anchor: end; visibility: inherit; font-family: &quot;Helvetica Neue&quot;, sans-serif; font-size: 12px; font-weight: 200;" fill="rgb(50, 49, 63)" stroke="none" stroke-width="1px">140</text><text x="0" y="116.30769230769232" dx="0em" dy="0.3em" style="text-anchor: end; visibility: inherit; font-family: &quot;Helvetica Neue&quot;, sans-serif; font-size: 12px; font-weight: 200;" fill="rgb(50, 49, 63)" stroke="none" stroke-width="1px">160</text><text x="0" y="87.23076923076923" dx="0em" dy="0.3em" style="text-anchor: end; visibility: inherit; font-family: &quot;Helvetica Neue&quot;, sans-serif; font-size: 12px; font-weight: 200;" fill="rgb(50, 49, 63)" stroke="none" stroke-width="1px">180</text><text x="0" y="58.15384615384613" dx="0em" dy="0.3em" style="text-anchor: end; visibility: inherit; font-family: &quot;Helvetica Neue&quot;, sans-serif; font-size: 12px; font-weight: 200;" fill="rgb(50, 49, 63)" stroke="none" stroke-width="1px">200</text><text x="0" y="29.076923076923038" dx="0em" dy="0.3em" style="text-anchor: end; visibility: inherit; font-family: &quot;Helvetica Neue&quot;, sans-serif; font-size: 12px; font-weight: 200;" fill="rgb(50, 49, 63)" stroke="none" stroke-width="1px">220</text><text x="0" y="0" dx="0em" dy="0.3em" style="text-anchor: end; visibility: hidden; font-family: &quot;Helvetica Neue&quot;, sans-serif; font-size: 12px; font-weight: 200;" fill="rgb(50, 49, 63)" stroke="none" stroke-width="1px">240</text></g><line x1="46" y1="0" x2="46" y2="378" fill="rgb(0, 0, 0)" stroke="rgb(204, 204, 204)" stroke-width="1px"></line></g></g><g transform="translate(46, 0)" clip-path="url(#clip_0)"><clipPath id="clip_0"><rect width="691" height="377"></rect></clipPath><g><g><g><line x1="0" y1="0" x2="0" y2="378" fill="rgb(0, 0, 0)" stroke="rgb(60, 60, 60)" stroke-width="1px" opacity="0.25"></line><line x1="57.62975" y1="0" x2="57.62975" y2="378" fill="rgb(0, 0, 0)" stroke="rgb(60, 60, 60)" stroke-width="1px" opacity="0.25"></line><line x1="115.2595" y1="0" x2="115.2595" y2="378" fill="rgb(0, 0, 0)" stroke="rgb(60, 60, 60)" stroke-width="1px" opacity="0.25"></line><line x1="172.88925" y1="0" x2="172.88925" y2="378" fill="rgb(0, 0, 0)" stroke="rgb(60, 60, 60)" stroke-width="1px" opacity="0.25"></line><line x1="230.519" y1="0" x2="230.519" y2="378" fill="rgb(0, 0, 0)" stroke="rgb(60, 60, 60)" stroke-width="1px" opacity="0.25"></line><line x1="288.14875" y1="0" x2="288.14875" y2="378" fill="rgb(0, 0, 0)" stroke="rgb(60, 60, 60)" stroke-width="1px" opacity="0.25"></line><line x1="345.7785" y1="0" x2="345.7785" y2="378" fill="rgb(0, 0, 0)" stroke="rgb(60, 60, 60)" stroke-width="1px" opacity="0.25"></line><line x1="403.40825" y1="0" x2="403.40825" y2="378" fill="rgb(0, 0, 0)" stroke="rgb(60, 60, 60)" stroke-width="1px" opacity="0.25"></line><line x1="461.038" y1="0" x2="461.038" y2="378" fill="rgb(0, 0, 0)" stroke="rgb(60, 60, 60)" stroke-width="1px" opacity="0.25"></line><line x1="518.6677500000001" y1="0" x2="518.6677500000001" y2="378" fill="rgb(0, 0, 0)" stroke="rgb(60, 60, 60)" stroke-width="1px" opacity="0.25"></line><line x1="576.2975" y1="0" x2="576.2975" y2="378" fill="rgb(0, 0, 0)" stroke="rgb(60, 60, 60)" stroke-width="1px" opacity="0.25"></line><line x1="633.92725" y1="0" x2="633.92725" y2="378" fill="rgb(0, 0, 0)" stroke="rgb(60, 60, 60)" stroke-width="1px" opacity="0.25"></line><line x1="691.557" y1="0" x2="691.557" y2="378" fill="rgb(0, 0, 0)" stroke="rgb(60, 60, 60)" stroke-width="1px" opacity="0.25"></line></g><g><line x1="0" y1="378" x2="691.557" y2="378" fill="rgb(0, 0, 0)" stroke="rgb(60, 60, 60)" stroke-width="1px" opacity="0.25"></line><line x1="0" y1="348.9230769230769" x2="691.557" y2="348.9230769230769" fill="rgb(0, 0, 0)" stroke="rgb(60, 60, 60)" stroke-width="1px" opacity="0.25"></line><line x1="0" y1="319.8461538461538" x2="691.557" y2="319.8461538461538" fill="rgb(0, 0, 0)" stroke="rgb(60, 60, 60)" stroke-width="1px" opacity="0.25"></line><line x1="0" y1="290.7692307692308" x2="691.557" y2="290.7692307692308" fill="rgb(0, 0, 0)" stroke="rgb(60, 60, 60)" stroke-width="1px" opacity="0.25"></line><line x1="0" y1="261.6923076923077" x2="691.557" y2="261.6923076923077" fill="rgb(0, 0, 0)" stroke="rgb(60, 60, 60)" stroke-width="1px" opacity="0.25"></line><line x1="0" y1="232.6153846153846" x2="691.557" y2="232.6153846153846" fill="rgb(0, 0, 0)" stroke="rgb(60, 60, 60)" stroke-width="1px" opacity="0.25"></line><line x1="0" y1="203.53846153846152" x2="691.557" y2="203.53846153846152" fill="rgb(0, 0, 0)" stroke="rgb(60, 60, 60)" stroke-width="1px" opacity="0.25"></line><line x1="0" y1="174.46153846153848" x2="691.557" y2="174.46153846153848" fill="rgb(0, 0, 0)" stroke="rgb(60, 60, 60)" stroke-width="1px" opacity="0.25"></line><line x1="0" y1="145.38461538461536" x2="691.557" y2="145.38461538461536" fill="rgb(0, 0, 0)" stroke="rgb(60, 60, 60)" stroke-width="1px" opacity="0.25"></line><line x1="0" y1="116.30769230769232" x2="691.557" y2="116.30769230769232" fill="rgb(0, 0, 0)" stroke="rgb(60, 60, 60)" stroke-width="1px" opacity="0.25"></line><line x1="0" y1="87.23076923076923" x2="691.557" y2="87.23076923076923" fill="rgb(0, 0, 0)" stroke="rgb(60, 60, 60)" stroke-width="1px" opacity="0.25"></line><line x1="0" y1="58.15384615384613" x2="691.557" y2="58.15384615384613" fill="rgb(0, 0, 0)" stroke="rgb(60, 60, 60)" stroke-width="1px" opacity="0.25"></line><line x1="0" y1="29.076923076923038" x2="691.557" y2="29.076923076923038" fill="rgb(0, 0, 0)" stroke="rgb(60, 60, 60)" stroke-width="1px" opacity="0.25"></line><line x1="0" y1="0" x2="691.557" y2="0" fill="rgb(0, 0, 0)" stroke="rgb(60, 60, 60)" stroke-width="1px" opacity="0.25"></line></g></g></g><g><g><line x1="0" y1="348.9230769230769" x2="691.557" y2="348.9230769230769" fill="rgb(0, 0, 0)" stroke="rgb(153, 153, 153)" stroke-width="1.5px"></line></g></g><g><g><line x1="57.62975" y1="0" x2="57.62975" y2="378" fill="rgb(0, 0, 0)" stroke="rgb(153, 153, 153)" stroke-width="1.5px"></line></g></g><g><g><g><g><g><path stroke="rgb(0, 153, 136)" stroke-width="2px" d="M57.62975,301.61716232299807L63.392725,276.9237425730779L69.15570000000001,260.7460070348048L74.91867500000001,259.0810578990306L80.68165,246.08881888477404L86.444625,223.05073414138454L92.2076,184.90728640885843L97.970575,177.4045078218774L103.73355,166.22853820730708L109.49652499999999,137.362581522654L115.2595,111.9839374786095L121.022475,90.40492814235262L126.78545,80.59321607372073L132.548425,92.17423282257471L138.31140000000002,100.47459920519583L144.074375,83.54152097718071L149.83735000000001,73.38473184273954L155.600325,71.55680434970304L161.3633,66.19529436252714L167.126275,62.978597471519834L172.88925,61.04865460738904L178.65222500000002,59.8907159849864L184.4152,59.19596256585265L190.178175,58.779114025862725L195.94115,58.5290061659922L201.704125,58.378941905151635L207.4671,58.288903512476L213.23007500000003,58.2348805358489L218.99304999999998,58.202466771104696L224.75602500000002,58.18301851990179L230.519,58.17134957193173L236.28197500000002,58.16434820414031L242.04495,58.16014738382205L247.807925,58.15762689175949L253.5709,58.15611459656816L259.33387500000003,58.155207219470014L265.09685,58.154662793217085L270.859825,71.72356399922586L276.62280000000004,66.29567684898109L282.385775,73.31279369201104L288.14875,67.24921467188176L293.911725,63.61106726291678L299.67470000000003,61.42817881865824L305.437675,60.11844575250649L311.20065,59.33260591296073L316.963625,58.8611020092855L322.7266,58.57819966709923L328.489575,58.40845826179424L334.25255,58.30661341861361L340.01552499999997,58.24550651270613L345.7785,58.20884236916203L351.541475,58.186843883035635L357.30445000000003,58.173644791359834L363.067425,58.16572533635434L368.8304,58.16097366335106L374.593375,58.15812265954912L380.35635,58.15641205726797L386.119325,58.15538569589927L391.8823,58.154769879078L397.64527499999997,58.154400388985266L403.40825,58.15417869492961L409.171225,58.15404567849629L414.9342,58.15396586863619L420.69717499999996,58.1539179827202L426.46015000000006,58.1538892511706L432.223125,58.15387201224087L437.98609999999996,58.153861668882996L443.74907500000006,58.15385546286831L449.51205000000004,58.15385173925944L455.275025,58.153849505094115L461.038,58.153848164594876L466.80097500000005,58.1538473602954L472.56395000000003,58.153846877715694L478.326925,58.15384658816794L484.0899,58.153846414439215L489.85287500000004,58.15384631020197L495.61585,63.387692401505774L501.378825,69.82338762953032L507.1418,82.02018642387202L512.9047750000001,90.88903788910386L518.6677500000001,79.92727184516605L524.4307249999999,71.21790156863813L530.1937,65.9922794027213L535.956675,66.73383213795188L541.71965,65.24029632491357L547.482625,62.40571625648664L553.2456000000001,71.56035578867267L559.0085750000001,77.82852116551129L564.77155,81.007881930076L570.534525,79.42626761958405L576.2975,83.90498838312362L582.060475,73.60453149141267L587.82345,69.55656800655123L593.586425,64.99547926546921L599.3494000000001,62.25882602081998L605.112375,60.810677270019085L610.87535,59.747944823549915L616.638325,59.1103053556684L622.4013,58.72772167493952L628.164275,60.2427868511175" style="fill: none;" fill="none"></path></g><g><path stroke="rgb(238, 51, 119)" stroke-width="2px" d="M57.62975,301.61716232299807L63.392725,292.11124356343197L69.15570000000001,282.1133550874479L74.91867500000001,266.270115265911L80.68165,260.5011681386208L86.444625,250.73263083552263L92.2076,237.49358686352323L97.970575,195.28881243559704L103.73355,158.0876158808742L109.49652499999999,143.61428560417355L115.2595,138.09932953716503L121.022475,106.05137476197791L126.78545,98.70738398384208L132.548425,82.4732471061813L138.31140000000002,72.74091072681688L144.074375,77.18118665997497L149.83735000000001,69.5689619621727L155.600325,65.0024518642744L161.3633,62.262842639346616L167.126275,60.619183950380545L172.88925,59.6330271984948L178.65222500000002,59.04134699283969L184.4152,58.686343853675226L190.178175,58.473343764467984L195.94115,58.34554435688182L201.704125,58.26886494486655L207.4671,58.22285738137009L213.23007500000003,58.19525287340872L218.99304999999998,58.178690179481066L224.75602500000002,58.1687525670302L230.519,58.162790000965686L236.28197500000002,58.159212461833135L242.04495,58.15706593853588L247.807925,58.15577802462309L253.5709,58.15500527629899L259.33387500000003,58.15454162731311L265.09685,58.154263437924556L270.859825,58.154096524292584L276.62280000000004,58.15399637611381L282.385775,58.153936287206704L288.14875,58.15390023386249L293.911725,58.15387860185592L299.67470000000003,58.153865622652006L305.437675,58.15385783512971L311.20065,58.153853162616315L316.963625,58.153850359108276L322.7266,58.153848677003396L328.489575,58.153847667740536L334.25255,58.15384706218282L340.01552499999997,58.54154196440112L345.7785,58.38646364017842L351.541475,58.29341664564521L357.30445000000003,58.23758844892552L363.067425,58.20409153089372L368.8304,58.183993380074696L374.593375,58.17193448958329L380.35635,58.164699155288474L386.119325,58.16035795471157L391.8823,58.15775323436543L397.64527499999997,58.15619040215768L403.40825,58.15525270283308L409.171225,58.15469008323839L414.9342,58.15435251148148L420.69717499999996,58.154149968427305L426.46015000000006,58.154028442594836L432.223125,58.15395552709538L437.98609999999996,58.15391177779571L443.74907500000006,58.15388552821594L449.51205000000004,58.15386977846805L455.275025,58.15386032861926L461.038,58.15385465871003L466.80097500000005,58.153851256764426L472.56395000000003,58.15384921559712L478.326925,58.15384799089679L484.0899,58.153847256076574L489.85287500000004,58.15384681518441L495.61585,58.15384655064912L501.378825,58.153846391927914L507.1418,58.153846296695235L512.9047750000001,58.153846239555605L518.6677500000001,58.153846205271805L524.4307249999999,58.153846184701536L530.1937,58.15384617235941L535.956675,58.153846164954075L541.71965,58.15384616051091L547.482625,58.15384615784501L553.2456000000001,58.15384615624549L559.0085750000001,58.15384615528575L564.77155,58.153846154709925L570.534525,58.15384615436437L576.2975,58.15384615415712L582.060475,58.15384615403275L587.82345,58.15384615395811L593.586425,65.71384615391332L599.3494000000001,74.12677218866713L605.112375,85.57145088644245L610.87535,100.38594449708484L616.638325,120.32387143270103L622.4013,136.308938244236L628.164275,155.4953629465416" style="fill: none;" fill="none"></path></g><g><path stroke="rgb(51, 187, 238)" stroke-width="2px" d="M57.62975,300.46154031019944L63.392725,302.09245618123276L69.15570000000001,287.04332233680475L74.91867500000001,274.8203585119269L80.68165,263.55632216162815L86.444625,252.0992522428462L92.2076,257.07262061833666L97.970575,227.3082608059103L103.73355,222.168232880401L109.49652499999999,216.42621997192882L115.2595,209.73484136129397L121.022475,195.0119331733753L126.78545,155.72508227727286L132.548425,137.4237875906983L138.31140000000002,128.97337622095637L144.074375,134.57021708965416L149.83735000000001,128.8150052003794L155.600325,115.4753436103245L161.3633,92.5453473660782L167.126275,86.93008003965355L172.88925,84.72415347864393L178.65222500000002,100.26546587535734L184.4152,83.42068495842699L190.178175,111.69562187556653L195.94115,125.94664145277227L201.704125,145.64340308612435L207.4671,154.11758898646073L213.23007500000003,161.81901965974205L218.99304999999998,176.03526318775914L224.75602500000002,180.2034665264443L230.519,181.68669549722392L236.28197500000002,174.43509364428084L242.04495,174.44567157168902L247.807925,177.79586457746194L253.5709,175.44444178297758L259.33387500000003,175.34204968411504L265.09685,152.69754032049525L270.859825,137.75390579433557L276.62280000000004,121.22772509730942L282.385775,116.35201966725265L288.14875,101.02044551514325L293.911725,83.87380576237291L299.67470000000003,73.58582191599169L305.437675,67.41303161006408L311.20065,64.09705269278209L316.963625,61.71977007705948L322.7266,60.29340050772072L328.489575,59.43757876615166L334.25255,69.58562122504713L340.01552499999997,71.21599107751433L345.7785,84.212668611791L351.541475,98.98913667079847L357.30445000000003,113.86425419113186L363.067425,115.81086316484647L368.8304,136.65421020661327L374.593375,150.61406458551167L380.35635,158.55382336669345L386.119325,167.67921709694036L391.8823,168.21137641201042L397.64527499999997,172.165287385668L403.40825,180.06224935447796L409.171225,170.55273422807124L414.9342,168.0454866906889L420.69717499999996,159.75651982578643L426.46015000000006,123.38006278376795L432.223125,97.28957613179915L437.98609999999996,81.63528414061796L443.74907500000006,72.24270894590927L449.51205000000004,66.60716382908402L455.275025,63.22583675898892L461.038,61.19704051693179L466.80097500000005,59.979762771697494L472.56395000000003,59.24939612455694L478.326925,58.81117613627265L484.0899,58.54824414330204L489.85287500000004,58.390484947519724L495.61585,58.295829430050276L501.378825,58.23903611956865L507.1418,58.204960133279656L512.9047750000001,58.1845145415063L518.6677500000001,58.17224718644218L524.4307249999999,58.16488677340385L530.1937,58.160470525580706L535.956675,73.66551604243682L541.71965,67.46084808700056L547.482625,63.738047313738775L553.2456000000001,61.504366849781775L559.0085750000001,60.16415857140754L564.77155,59.36003360438298L570.534525,58.877558624168216L576.2975,58.58807363603944L582.060475,58.41438264316213L587.82345,58.31016804743575L593.586425,58.24763928999988L599.3494000000001,58.21012203553846L605.112375,58.18761168286153L610.87535,58.17410547125536L616.638325,58.16600174429175L622.4013,58.161139508113536L628.164275,58.54591743195641" style="fill: none;" fill="none"></path></g></g></g></g><g opacity="0.2"><g><g><g><path stroke="rgb(0, 153, 136)" stroke-width="2px" d="M57.62975,301.61716232299807L63.392725,262.10769072312576L69.15570000000001,245.21538091806266L74.91867500000001,257.1230777153602L80.68165,229.12615162776066L86.444625,191.18076923076922L92.2076,130.3615458561824L97.970575,166.4653846153846L103.73355,149.74615384615387L109.49652499999999,94.5L115.2595,74.14615384615382L121.022475,58.15384615384613L126.78545,65.9076849130484L132.548425,109.52306952843298L138.31140000000002,112.91539201002854L144.074375,58.15384615384613L149.83735000000001,58.15384615384613L155.600325,68.81537722074069L161.3633,58.15384615384613L167.126275,58.15384615384613L172.88925,58.15384615384613L178.65222500000002,58.15384615384613L184.4152,58.15384615384613L190.178175,58.15384615384613L195.94115,58.15384615384613L201.704125,58.15384615384613L207.4671,58.15384615384613L213.23007500000003,58.15384615384613L218.99304999999998,58.15384615384613L224.75602500000002,58.15384615384613L230.519,58.15384615384613L236.28197500000002,58.15384615384613L242.04495,58.15384615384613L247.807925,58.15384615384613L253.5709,58.15384615384613L259.33387500000003,58.15384615384613L265.09685,58.15384615384613L270.859825,92.07691568227915L276.62280000000004,58.15384615384613L282.385775,83.8384689331055L288.14875,58.15384615384613L293.911725,58.15384615384613L299.67470000000003,58.15384615384613L305.437675,58.15384615384613L311.20065,58.15384615384613L316.963625,58.15384615384613L322.7266,58.15384615384613L328.489575,58.15384615384613L334.25255,58.15384615384613L340.01552499999997,58.15384615384613L345.7785,58.15384615384613L351.541475,58.15384615384613L357.30445000000003,58.15384615384613L363.067425,58.15384615384613L368.8304,58.15384615384613L374.593375,58.15384615384613L380.35635,58.15384615384613L386.119325,58.15384615384613L391.8823,58.15384615384613L397.64527499999997,58.15384615384613L403.40825,58.15384615384613L409.171225,58.15384615384613L414.9342,58.15384615384613L420.69717499999996,58.15384615384613L426.46015000000006,58.15384615384613L432.223125,58.15384615384613L437.98609999999996,58.15384615384613L443.74907500000006,58.15384615384613L449.51205000000004,58.15384615384613L455.275025,58.15384615384613L461.038,58.15384615384613L466.80097500000005,58.15384615384613L472.56395000000003,58.15384615384613L478.326925,58.15384615384613L484.0899,58.15384615384613L489.85287500000004,58.15384615384613L495.61585,71.23846153846154L501.378825,79.47693047156702L507.1418,100.31538461538457L512.9047750000001,104.19231508695162L518.6677500000001,63.484622779259325L524.4307249999999,58.15384615384613L530.1937,58.15384615384613L535.956675,67.84616124079776L541.71965,62.999992605356056L547.482625,58.15384615384613L553.2456000000001,85.29231508695165L559.0085750000001,87.23076923076923L564.77155,85.77692307692308L570.534525,77.05384615384617L576.2975,90.623069528433L582.060475,58.15384615384613L587.82345,63.484622779259325L593.586425,58.15384615384613L599.3494000000001,58.15384615384613L605.112375,58.63845414381757L610.87535,58.15384615384613L616.638325,58.15384615384613L622.4013,58.15384615384613L628.164275,62.51538461538462" style="fill: none;" fill="none"></path></g><g><path stroke="rgb(238, 51, 119)" stroke-width="2px" d="M57.62975,301.61716232299807L63.392725,286.4076923076923L69.15570000000001,272.5153821505033L74.91867500000001,247.63846523578349L80.68165,252.96923076923076L86.444625,237.21922707190882L92.2076,218.56154215886045L97.970575,133.75384615384613L103.73355,103.22307692307692L109.49652499999999,122.12307692307692L115.2595,129.87691568227913L121.022475,58.15384615384613L126.78545,87.71537722074066L132.548425,58.15384615384613L138.31140000000002,58.15384615384613L144.074375,83.8384689331055L149.83735000000001,58.15384615384613L155.600325,58.15384615384613L161.3633,58.15384615384613L167.126275,58.15384615384613L172.88925,58.15384615384613L178.65222500000002,58.15384615384613L184.4152,58.15384615384613L190.178175,58.15384615384613L195.94115,58.15384615384613L201.704125,58.15384615384613L207.4671,58.15384615384613L213.23007500000003,58.15384615384613L218.99304999999998,58.15384615384613L224.75602500000002,58.15384615384613L230.519,58.15384615384613L236.28197500000002,58.15384615384613L242.04495,58.15384615384613L247.807925,58.15384615384613L253.5709,58.15384615384613L259.33387500000003,58.15384615384613L265.09685,58.15384615384613L270.859825,58.15384615384613L276.62280000000004,58.15384615384613L282.385775,58.15384615384613L288.14875,58.15384615384613L293.911725,58.15384615384613L299.67470000000003,58.15384615384613L305.437675,58.15384615384613L311.20065,58.15384615384613L316.963625,58.15384615384613L322.7266,58.15384615384613L328.489575,58.15384615384613L334.25255,58.15384615384613L340.01552499999997,59.123084317720895L345.7785,58.15384615384613L351.541475,58.15384615384613L357.30445000000003,58.15384615384613L363.067425,58.15384615384613L368.8304,58.15384615384613L374.593375,58.15384615384613L380.35635,58.15384615384613L386.119325,58.15384615384613L391.8823,58.15384615384613L397.64527499999997,58.15384615384613L403.40825,58.15384615384613L409.171225,58.15384615384613L414.9342,58.15384615384613L420.69717499999996,58.15384615384613L426.46015000000006,58.15384615384613L432.223125,58.15384615384613L437.98609999999996,58.15384615384613L443.74907500000006,58.15384615384613L449.51205000000004,58.15384615384613L455.275025,58.15384615384613L461.038,58.15384615384613L466.80097500000005,58.15384615384613L472.56395000000003,58.15384615384613L478.326925,58.15384615384613L484.0899,58.15384615384613L489.85287500000004,58.15384615384613L495.61585,58.15384615384613L501.378825,58.15384615384613L507.1418,58.15384615384613L512.9047750000001,58.15384615384613L518.6677500000001,58.15384615384613L524.4307249999999,58.15384615384613L530.1937,58.15384615384613L535.956675,58.15384615384613L541.71965,58.15384615384613L547.482625,58.15384615384613L553.2456000000001,58.15384615384613L559.0085750000001,58.15384615384613L564.77155,58.15384615384613L570.534525,58.15384615384613L576.2975,58.15384615384613L582.060475,58.15384615384613L587.82345,58.15384615384613L593.586425,77.05384615384617L599.3494000000001,86.74616124079779L605.112375,102.73846893310548L610.87535,122.60768491304839L616.638325,150.23076183612528L622.4013,160.28653846153847L628.164275,184.275" style="fill: none;" fill="none"></path></g><g><path stroke="rgb(51, 187, 238)" stroke-width="2px" d="M57.62975,300.46154031019944L63.392725,303.07100570385273L69.15570000000001,272.5961538461538L74.91867500000001,260.4461530538706L80.68165,248.84999630267805L86.444625,236.25L92.2076,264.18461696918195L97.970575,183.91153846153847L103.73355,214.58769008929914L109.49652499999999,207.9L115.2595,199.75846375685472L121.022475,173.0076923076923L126.78545,96.92308431772085L132.548425,110.00769970233625L138.31140000000002,116.30769230769232L144.074375,142.96153106689454L149.83735000000001,120.18462277925931L155.600325,95.4692381638747L161.3633,58.15384615384613L167.126275,78.50769230769231L172.88925,81.4153846153846L178.65222500000002,123.57692307692307L184.4152,58.15384615384613L190.178175,154.1076923076923L195.94115,147.323069528433L201.704125,175.18846153846155L207.4671,166.82884615384614L213.23007500000003,173.37115384615387L218.99304999999998,197.35961538461538L224.75602500000002,186.45576923076925L230.519,183.91153846153847L236.28197500000002,163.55769230769232L242.04495,174.46153846153848L247.807925,182.82115384615383L253.5709,171.9173076923077L259.33387500000003,175.18846153846155L265.09685,118.73077662541317L270.859825,115.33845414381761L276.62280000000004,96.43845414381764L282.385775,109.03846153846155L288.14875,78.02308431772087L293.911725,58.15384615384613L299.67470000000003,58.15384615384613L305.437675,58.15384615384613L311.20065,59.123084317720895L316.963625,58.15384615384613L322.7266,58.15384615384613L328.489575,58.15384615384613L334.25255,84.80768491304838L340.01552499999997,73.66154585618239L345.7785,103.70768491304835L351.541475,121.15383875920224L357.30445000000003,136.176930471567L363.067425,118.73077662541317L368.8304,167.91923076923075L374.593375,171.55384615384617L380.35635,170.46346153846153L386.119325,181.3673076923077L391.8823,169.00961538461536L397.64527499999997,178.09615384615384L403.40825,191.9076923076923L409.171225,156.28846153846152L414.9342,164.2846153846154L420.69717499999996,147.323069528433L426.46015000000006,68.81537722074069L432.223125,58.15384615384613L437.98609999999996,58.15384615384613L443.74907500000006,58.15384615384613L449.51205000000004,58.15384615384613L455.275025,58.15384615384613L461.038,58.15384615384613L466.80097500000005,58.15384615384613L472.56395000000003,58.15384615384613L478.326925,58.15384615384613L484.0899,58.15384615384613L489.85287500000004,58.15384615384613L495.61585,58.15384615384613L501.378825,58.15384615384613L507.1418,58.15384615384613L512.9047750000001,58.15384615384613L518.6677500000001,58.15384615384613L524.4307249999999,58.15384615384613L530.1937,58.15384615384613L535.956675,96.92308431772085L541.71965,58.15384615384613L547.482625,58.15384615384613L553.2456000000001,58.15384615384613L559.0085750000001,58.15384615384613L564.77155,58.15384615384613L570.534525,58.15384615384613L576.2975,58.15384615384613L582.060475,58.15384615384613L587.82345,58.15384615384613L593.586425,58.15384615384613L599.3494000000001,58.15384615384613L605.112375,58.15384615384613L610.87535,58.15384615384613L616.638325,58.15384615384613L622.4013,58.15384615384613L628.164275,59.123084317720895" style="fill: none;" fill="none"></path></g></g></g></g></g></g><g transform="translate(46, 378)" clip-path="url(#clip_1)"><clipPath id="clip_1"><rect width="691" height="21"></rect></clipPath><g><g><line x1="0" y1="0" x2="0" y2="5" style="visibility: inherit;" fill="rgb(0, 0, 0)" stroke="rgb(204, 204, 204)" stroke-width="1px"></line><line x1="57.62975" y1="0" x2="57.62975" y2="5" style="visibility: inherit;" fill="rgb(0, 0, 0)" stroke="rgb(204, 204, 204)" stroke-width="1px"></line><line x1="115.2595" y1="0" x2="115.2595" y2="5" style="visibility: inherit;" fill="rgb(0, 0, 0)" stroke="rgb(204, 204, 204)" stroke-width="1px"></line><line x1="172.88925" y1="0" x2="172.88925" y2="5" style="visibility: inherit;" fill="rgb(0, 0, 0)" stroke="rgb(204, 204, 204)" stroke-width="1px"></line><line x1="230.519" y1="0" x2="230.519" y2="5" style="visibility: inherit;" fill="rgb(0, 0, 0)" stroke="rgb(204, 204, 204)" stroke-width="1px"></line><line x1="288.14875" y1="0" x2="288.14875" y2="5" style="visibility: inherit;" fill="rgb(0, 0, 0)" stroke="rgb(204, 204, 204)" stroke-width="1px"></line><line x1="345.7785" y1="0" x2="345.7785" y2="5" style="visibility: inherit;" fill="rgb(0, 0, 0)" stroke="rgb(204, 204, 204)" stroke-width="1px"></line><line x1="403.40825" y1="0" x2="403.40825" y2="5" style="visibility: inherit;" fill="rgb(0, 0, 0)" stroke="rgb(204, 204, 204)" stroke-width="1px"></line><line x1="461.038" y1="0" x2="461.038" y2="5" style="visibility: inherit;" fill="rgb(0, 0, 0)" stroke="rgb(204, 204, 204)" stroke-width="1px"></line><line x1="518.6677500000001" y1="0" x2="518.6677500000001" y2="5" style="visibility: inherit;" fill="rgb(0, 0, 0)" stroke="rgb(204, 204, 204)" stroke-width="1px"></line><line x1="576.2975" y1="0" x2="576.2975" y2="5" style="visibility: inherit;" fill="rgb(0, 0, 0)" stroke="rgb(204, 204, 204)" stroke-width="1px"></line><line x1="633.92725" y1="0" x2="633.92725" y2="5" style="visibility: inherit;" fill="rgb(0, 0, 0)" stroke="rgb(204, 204, 204)" stroke-width="1px"></line><line x1="691.557" y1="0" x2="691.557" y2="5" style="visibility: inherit;" fill="rgb(0, 0, 0)" stroke="rgb(204, 204, 204)" stroke-width="1px"></line></g><g transform="translate(0, 8)"><text x="0" y="0" dx="0em" dy="0.95em" style="text-anchor: middle; visibility: hidden; font-family: &quot;Helvetica Neue&quot;, sans-serif; font-size: 12px; font-weight: 200;" fill="rgb(50, 49, 63)" stroke="none" stroke-width="1px">-10</text><text x="57.62975" y="0" dx="0em" dy="0.95em" style="text-anchor: middle; visibility: inherit; font-family: &quot;Helvetica Neue&quot;, sans-serif; font-size: 12px; font-weight: 200;" fill="rgb(50, 49, 63)" stroke="none" stroke-width="1px">0</text><text x="115.2595" y="0" dx="0em" dy="0.95em" style="text-anchor: middle; visibility: inherit; font-family: &quot;Helvetica Neue&quot;, sans-serif; font-size: 12px; font-weight: 200;" fill="rgb(50, 49, 63)" stroke="none" stroke-width="1px">10</text><text x="172.88925" y="0" dx="0em" dy="0.95em" style="text-anchor: middle; visibility: inherit; font-family: &quot;Helvetica Neue&quot;, sans-serif; font-size: 12px; font-weight: 200;" fill="rgb(50, 49, 63)" stroke="none" stroke-width="1px">20</text><text x="230.519" y="0" dx="0em" dy="0.95em" style="text-anchor: middle; visibility: inherit; font-family: &quot;Helvetica Neue&quot;, sans-serif; font-size: 12px; font-weight: 200;" fill="rgb(50, 49, 63)" stroke="none" stroke-width="1px">30</text><text x="288.14875" y="0" dx="0em" dy="0.95em" style="text-anchor: middle; visibility: inherit; font-family: &quot;Helvetica Neue&quot;, sans-serif; font-size: 12px; font-weight: 200;" fill="rgb(50, 49, 63)" stroke="none" stroke-width="1px">40</text><text x="345.7785" y="0" dx="0em" dy="0.95em" style="text-anchor: middle; visibility: inherit; font-family: &quot;Helvetica Neue&quot;, sans-serif; font-size: 12px; font-weight: 200;" fill="rgb(50, 49, 63)" stroke="none" stroke-width="1px">50</text><text x="403.40825" y="0" dx="0em" dy="0.95em" style="text-anchor: middle; visibility: inherit; font-family: &quot;Helvetica Neue&quot;, sans-serif; font-size: 12px; font-weight: 200;" fill="rgb(50, 49, 63)" stroke="none" stroke-width="1px">60</text><text x="461.038" y="0" dx="0em" dy="0.95em" style="text-anchor: middle; visibility: inherit; font-family: &quot;Helvetica Neue&quot;, sans-serif; font-size: 12px; font-weight: 200;" fill="rgb(50, 49, 63)" stroke="none" stroke-width="1px">70</text><text x="518.6677500000001" y="0" dx="0em" dy="0.95em" style="text-anchor: middle; visibility: inherit; font-family: &quot;Helvetica Neue&quot;, sans-serif; font-size: 12px; font-weight: 200;" fill="rgb(50, 49, 63)" stroke="none" stroke-width="1px">80</text><text x="576.2975" y="0" dx="0em" dy="0.95em" style="text-anchor: middle; visibility: inherit; font-family: &quot;Helvetica Neue&quot;, sans-serif; font-size: 12px; font-weight: 200;" fill="rgb(50, 49, 63)" stroke="none" stroke-width="1px">90</text><text x="633.92725" y="0" dx="0em" dy="0.95em" style="text-anchor: middle; visibility: inherit; font-family: &quot;Helvetica Neue&quot;, sans-serif; font-size: 12px; font-weight: 200;" fill="rgb(50, 49, 63)" stroke="none" stroke-width="1px">100</text><text x="691.557" y="0" dx="0em" dy="0.95em" style="text-anchor: middle; visibility: hidden; font-family: &quot;Helvetica Neue&quot;, sans-serif; font-size: 12px; font-weight: 200;" fill="rgb(50, 49, 63)" stroke="none" stroke-width="1px">110</text></g><line x1="0" y1="0" x2="691.557" y2="0" fill="rgb(0, 0, 0)" stroke="rgb(204, 204, 204)" stroke-width="1px"></line></g></g></g></g></svg>