<svg viewBox="0 0 737.5567626953125 400" xmlns="http://www.w3.org/2000/svg"><g><g><g><g><g><line x1="46" y1="378" x2="41" y2="378" style="visibility: inherit;" fill="rgb(0, 0, 0)" stroke="rgb(204, 204, 204)" stroke-width="1px"></line><line x1="46" y1="348.9230769230769" x2="41" y2="348.9230769230769" style="visibility: inherit;" fill="rgb(0, 0, 0)" stroke="rgb(204, 204, 204)" stroke-width="1px"></line><line x1="46" y1="319.8461538461538" x2="41" y2="319.8461538461538" style="visibility: inherit;" fill="rgb(0, 0, 0)" stroke="rgb(204, 204, 204)" stroke-width="1px"></line><line x1="46" y1="290.7692307692308" x2="41" y2="290.7692307692308" style="visibility: inherit;" fill="rgb(0, 0, 0)" stroke="rgb(204, 204, 204)" stroke-width="1px"></line><line x1="46" y1="261.6923076923077" x2="41" y2="261.6923076923077" style="visibility: inherit;" fill="rgb(0, 0, 0)" stroke="rgb(204, 204, 204)" stroke-width="1px"></line><line x1="46" y1="232.6153846153846" x2="41" y2="232.6153846153846" style="visibility: inherit;" fill="rgb(0, 0, 0)" stroke="rgb(204, 204, 204)" stroke-width="1px"></line><line x1="46" y1="203.53846153846152" x2="41" y2="203.53846153846152" style="visibility: inherit;" fill="rgb(0, 0, 0)" stroke="rgb(204, 204, 204)" stroke-width="1px"></line><line x1="46" y1="174.46153846153848" x2="41" y2="174.46153846153848" style="visibility: inherit;" fill="rgb(0, 0, 0)" stroke="rgb(204, 204, 204)" stroke-width="1px"></line><line x1="46" y1="145.38461538461536" x2="41" y2="145.38461538461536" style="visibility: inherit;" fill="rgb(0, 0, 0)" stroke="rgb(204, 204, 204)" stroke-width="1px"></line><line x1="46" y1="116.30769230769232" x2="41" y2="116.30769230769232" style="visibility: inherit;" fill="rgb(0, 0, 0)" stroke="rgb(204, 204, 204)" stroke-width="1px"></line><line x1="46" y1="87.23076923076923" x2="41" y2="87.23076923076923" style="visibility: inherit;" fill="rgb(0, 0, 0)" stroke="rgb(204, 204, 204)" stroke-width="1px"></line><line x1="46" y1="58.15384615384613" x2="41" y2="58.15384615384613" style="visibility: inherit;" fill="rgb(0, 0, 0)" stroke="rgb(204, 204, 204)" stroke-width="1px"></line><line x1="46" y1="29.076923076923038" x2="41" y2="29.076923076923038" style="visibility: inherit;" fill="rgb(0, 0, 0)" stroke="rgb(204, 204, 204)" stroke-width="1px"></line><line x1="46" y1="0" x2="41" y2="0" style="visibility: inherit;" fill="rgb(0, 0, 0)" stroke="rgb(204, 204, 204)" stroke-width="1px"></line></g><g transform="translate(36, 0)"><text x="0" y="378" dx="0em" dy="0.3em" style="text-anchor: end; visibility: hidden; font-family: &quot;Helvetica Neue&quot;, sans-serif; font-size: 12px; font-weight: 200;" fill="rgb(50, 49, 63)" stroke="none" stroke-width="1px">-20</text><text x="0" y="348.9230769230769" dx="0em" dy="0.3em" style="text-anchor: end; visibility: inherit; font-family: &quot;Helvetica Neue&quot;, sans-serif; font-size: 12px; font-weight: 200;" fill="rgb(50, 49, 63)" stroke="none" stroke-width="1px">0</text><text x="0" y="319.8461538461538" dx="0em" dy="0.3em" style="text-anchor: end; visibility: inherit; font-family: &quot;Helvetica Neue&quot;, sans-serif; font-size: 12px; font-weight: 200;" fill="rgb(50, 49, 63)" stroke="none" stroke-width="1px">20</text><text x="0" y="290.7692307692308" dx="0em" dy="0.3em" style="text-anchor: end; visibility: inherit; font-family: &quot;Helvetica Neue&quot;, sans-serif; font-size: 12px; font-weight: 200;" fill="rgb(50, 49, 63)" stroke="none" stroke-width="1px">40</text><text x="0" y="261.6923076923077" dx="0em" dy="0.3em" style="text-anchor: end; visibility: inherit; font-family: &quot;Helvetica Neue&quot;, sans-serif; font-size: 12px; font-weight: 200;" fill="rgb(50, 49, 63)" stroke="none" stroke-width="1px">60</text><text x="0" y="232.6153846153846" dx="0em" dy="0.3em" style="text-anchor: end; visibility: inherit; font-family: &quot;Helvetica Neue&quot;, sans-serif; font-size: 12px; font-weight: 200;" fill="rgb(50, 49, 63)" stroke="none" stroke-width="1px">80</text><text x="0" y="203.53846153846152" dx="0em" dy="0.3em" style="text-anchor: end; visibility: inherit; font-family: &quot;Helvetica Neue&quot;, sans-serif; font-size: 12px; font-weight: 200;" fill="rgb(50, 49, 63)" stroke="none" stroke-width="1px">100</text><text x="0" y="174.46153846153848" dx="0em" dy="0.3em" style="text-anchor: end; visibility: inherit; font-family: &quot;Helvetica Neue&quot;, sans-serif; font-size: 12px; font-weight: 200;" fill="rgb(50, 49, 63)" stroke="none" stroke-width="1px">120</text><text x="0" y="145.38461538461536" dx="0em" dy="0.3em" style="text-anchor: end; visibility: inherit; font-family: &quot;Helvetica Neue&quot;, sans-serif; font-size: 12px; font-weight: 200;" fill="rgb(50, 49, 63)" stroke="none" stroke-width="1px">140</text><text x="0" y="116.30769230769232" dx="0em" dy="0.3em" style="text-anchor: end; visibility: inherit; font-family: &quot;Helvetica Neue&quot;, sans-serif; font-size: 12px; font-weight: 200;" fill="rgb(50, 49, 63)" stroke="none" stroke-width="1px">160</text><text x="0" y="87.23076923076923" dx="0em" dy="0.3em" style="text-anchor: end; visibility: inherit; font-family: &quot;Helvetica Neue&quot;, sans-serif; font-size: 12px; font-weight: 200;" fill="rgb(50, 49, 63)" stroke="none" stroke-width="1px">180</text><text x="0" y="58.15384615384613" dx="0em" dy="0.3em" style="text-anchor: end; visibility: inherit; font-family: &quot;Helvetica Neue&quot;, sans-serif; font-size: 12px; font-weight: 200;" fill="rgb(50, 49, 63)" stroke="none" stroke-width="1px">200</text><text x="0" y="29.076923076923038" dx="0em" dy="0.3em" style="text-anchor: end; visibility: inherit; font-family: &quot;Helvetica Neue&quot;, sans-serif; font-size: 12px; font-weight: 200;" fill="rgb(50, 49, 63)" stroke="none" stroke-width="1px">220</text><text x="0" y="0" dx="0em" dy="0.3em" style="text-anchor: end; visibility: hidden; font-family: &quot;Helvetica Neue&quot;, sans-serif; font-size: 12px; font-weight: 200;" fill="rgb(50, 49, 63)" stroke="none" stroke-width="1px">240</text></g><line x1="46" y1="0" x2="46" y2="378" fill="rgb(0, 0, 0)" stroke="rgb(204, 204, 204)" stroke-width="1px"></line></g></g><g transform="translate(46, 0)" clip-path="url(#clip_0)"><clipPath id="clip_0"><rect width="691" height="377"></rect></clipPath><g><g><g><line x1="0" y1="0" x2="0" y2="378" fill="rgb(0, 0, 0)" stroke="rgb(60, 60, 60)" stroke-width="1px" opacity="0.25"></line><line x1="57.62975" y1="0" x2="57.62975" y2="378" fill="rgb(0, 0, 0)" stroke="rgb(60, 60, 60)" stroke-width="1px" opacity="0.25"></line><line x1="115.2595" y1="0" x2="115.2595" y2="378" fill="rgb(0, 0, 0)" stroke="rgb(60, 60, 60)" stroke-width="1px" opacity="0.25"></line><line x1="172.88925" y1="0" x2="172.88925" y2="378" fill="rgb(0, 0, 0)" stroke="rgb(60, 60, 60)" stroke-width="1px" opacity="0.25"></line><line x1="230.519" y1="0" x2="230.519" y2="378" fill="rgb(0, 0, 0)" stroke="rgb(60, 60, 60)" stroke-width="1px" opacity="0.25"></line><line x1="288.14875" y1="0" x2="288.14875" y2="378" fill="rgb(0, 0, 0)" stroke="rgb(60, 60, 60)" stroke-width="1px" opacity="0.25"></line><line x1="345.7785" y1="0" x2="345.7785" y2="378" fill="rgb(0, 0, 0)" stroke="rgb(60, 60, 60)" stroke-width="1px" opacity="0.25"></line><line x1="403.40825" y1="0" x2="403.40825" y2="378" fill="rgb(0, 0, 0)" stroke="rgb(60, 60, 60)" stroke-width="1px" opacity="0.25"></line><line x1="461.038" y1="0" x2="461.038" y2="378" fill="rgb(0, 0, 0)" stroke="rgb(60, 60, 60)" stroke-width="1px" opacity="0.25"></line><line x1="518.6677500000001" y1="0" x2="518.6677500000001" y2="378" fill="rgb(0, 0, 0)" stroke="rgb(60, 60, 60)" stroke-width="1px" opacity="0.25"></line><line x1="576.2975" y1="0" x2="576.2975" y2="378" fill="rgb(0, 0, 0)" stroke="rgb(60, 60, 60)" stroke-width="1px" opacity="0.25"></line><line x1="633.92725" y1="0" x2="633.92725" y2="378" fill="rgb(0, 0, 0)" stroke="rgb(60, 60, 60)" stroke-width="1px" opacity="0.25"></line><line x1="691.557" y1="0" x2="691.557" y2="378" fill="rgb(0, 0, 0)" stroke="rgb(60, 60, 60)" stroke-width="1px" opacity="0.25"></line></g><g><line x1="0" y1="378" x2="691.557" y2="378" fill="rgb(0, 0, 0)" stroke="rgb(60, 60, 60)" stroke-width="1px" opacity="0.25"></line><line x1="0" y1="348.9230769230769" x2="691.557" y2="348.9230769230769" fill="rgb(0, 0, 0)" stroke="rgb(60, 60, 60)" stroke-width="1px" opacity="0.25"></line><line x1="0" y1="319.8461538461538" x2="691.557" y2="319.8461538461538" fill="rgb(0, 0, 0)" stroke="rgb(60, 60, 60)" stroke-width="1px" opacity="0.25"></line><line x1="0" y1="290.7692307692308" x2="691.557" y2="290.7692307692308" fill="rgb(0, 0, 0)" stroke="rgb(60, 60, 60)" stroke-width="1px" opacity="0.25"></line><line x1="0" y1="261.6923076923077" x2="691.557" y2="261.6923076923077" fill="rgb(0, 0, 0)" stroke="rgb(60, 60, 60)" stroke-width="1px" opacity="0.25"></line><line x1="0" y1="232.6153846153846" x2="691.557" y2="232.6153846153846" fill="rgb(0, 0, 0)" stroke="rgb(60, 60, 60)" stroke-width="1px" opacity="0.25"></line><line x1="0" y1="203.53846153846152" x2="691.557" y2="203.53846153846152" fill="rgb(0, 0, 0)" stroke="rgb(60, 60, 60)" stroke-width="1px" opacity="0.25"></line><line x1="0" y1="174.46153846153848" x2="691.557" y2="174.46153846153848" fill="rgb(0, 0, 0)" stroke="rgb(60, 60, 60)" stroke-width="1px" opacity="0.25"></line><line x1="0" y1="145.38461538461536" x2="691.557" y2="145.38461538461536" fill="rgb(0, 0, 0)" stroke="rgb(60, 60, 60)" stroke-width="1px" opacity="0.25"></line><line x1="0" y1="116.30769230769232" x2="691.557" y2="116.30769230769232" fill="rgb(0, 0, 0)" stroke="rgb(60, 60, 60)" stroke-width="1px" opacity="0.25"></line><line x1="0" y1="87.23076923076923" x2="691.557" y2="87.23076923076923" fill="rgb(0, 0, 0)" stroke="rgb(60, 60, 60)" stroke-width="1px" opacity="0.25"></line><line x1="0" y1="58.15384615384613" x2="691.557" y2="58.15384615384613" fill="rgb(0, 0, 0)" stroke="rgb(60, 60, 60)" stroke-width="1px" opacity="0.25"></line><line x1="0" y1="29.076923076923038" x2="691.557" y2="29.076923076923038" fill="rgb(0, 0, 0)" stroke="rgb(60, 60, 60)" stroke-width="1px" opacity="0.25"></line><line x1="0" y1="0" x2="691.557" y2="0" fill="rgb(0, 0, 0)" stroke="rgb(60, 60, 60)" stroke-width="1px" opacity="0.25"></line></g></g></g><g><g><line x1="0" y1="348.9230769230769" x2="691.557" y2="348.9230769230769" fill="rgb(0, 0, 0)" stroke="rgb(153, 153, 153)" stroke-width="1.5px"></line></g></g><g><g><line x1="57.62975" y1="0" x2="57.62975" y2="378" fill="rgb(0, 0, 0)" stroke="rgb(153, 153, 153)" stroke-width="1.5px"></line></g></g><g><g><g><g><g><path stroke="rgb(204, 51, 17)" stroke-width="2px" d="M57.62975,306.86538421924297L63.392725,292.5649025421876L69.15570000000001,264.82182228381816L74.91867500000001,266.8077813587038L80.68165,237.78976643640257L86.444625,243.20013336265202L92.2076,238.6049827845492L97.970575,227.05953106752236L103.73355,189.50417020751908L109.49652499999999,147.37081178313483L115.2595,141.70964378459686L121.022475,149.4480156373011L126.78545,147.38380568862053L132.548425,123.30372094835971L138.31140000000002,127.09785971208052L144.074375,120.84156920140691L149.83735000000001,99.83369328153833L155.600325,100.60798691384309L161.3633,106.69439675670617L167.126275,106.85664694400509L172.88925,106.37244204074318L178.65222500000002,125.17602041265593L184.4152,112.9055153437065L190.178175,111.94022770924607L195.94115,130.69726687542712L201.704125,157.50763662807913L207.4671,155.5661184512608L213.23007500000003,150.03966767699495L218.99304999999998,133.6391791787145L224.75602500000002,140.66350906012485L230.519,107.65963951983645L236.28197500000002,110.53732240246535L242.04495,89.58393090245193L247.807925,101.63035592875792L253.5709,84.23975171983642L259.33387500000003,79.81461725917075L265.09685,74.0580010891075L270.859825,68.6655728220681L276.62280000000004,96.83319286769972L282.385775,81.36145416147644L288.14875,72.07841095097888L293.911725,66.50858502944544L299.67470000000003,63.16668947824081L305.437675,88.4938598451784L311.20065,76.357854367384L316.963625,124.43871084871458L322.7266,97.92476496977503L328.489575,90.15793590476756L334.25255,112.24860769700427L340.01552499999997,90.61070307956612L345.7785,77.62796030921521L351.541475,69.83831464704485L357.30445000000003,65.16452724975721L363.067425,62.36025481138995L368.8304,86.84692211761859L374.593375,75.36969173210525L380.35635,68.48335350080004L386.119325,64.35155056201796L391.8823,61.872468798749026L397.64527499999997,60.38501974078781L403.40825,59.49255030601114L409.171225,58.95706864514517L414.9342,58.6357796486256L420.69717499999996,58.443006250713836L426.46015000000006,58.327342211966766L432.223125,58.257943788718535L437.98609999999996,58.21630473476961L443.74907500000006,66.52670295992726L449.51205000000004,63.177560237494845L455.275025,61.16807460403538L461.038,59.96238322395965L466.80097500000005,59.2389683959143L472.56395000000003,58.80491949908702L478.326925,58.54449016099068L484.0899,58.38823255813293L489.85287500000004,58.29447799641821L495.61585,58.238225259389424L501.378825,58.204473617172084L507.1418,81.63960428936878L512.9047750000001,72.24530103515968L518.6677500000001,66.60871908263431L524.4307249999999,63.22676991111905L530.1937,61.197600408209894L535.956675,59.98009870646433L541.71965,59.249597685417086L547.482625,58.81129707278876L553.2456000000001,58.54831670521173L559.0085750000001,58.39052848466554L564.77155,58.2958555523378L570.534525,58.239051792941154L576.2975,58.20496953730316L582.060475,58.18452018392037L587.82345,58.172250571890686L593.586425,58.1648888046729L599.3494000000001,58.1604717443422L605.112375,58.1578215081438L610.87535,58.15623136642478L616.638325,58.155277281393296L622.4013,58.1547048303745L628.164275,58.154361359763186" style="fill: none;" fill="none"></path></g><g><path stroke="rgb(0, 119, 187)" stroke-width="2px" d="M57.62975,304.99615503457875L63.392725,297.42600442996394L69.15570000000001,278.982596384824L74.91867500000001,260.68071031996567L80.68165,263.56293239599614L86.444625,250.5780925981429L92.2076,248.6703732238025L97.970575,220.69777633673542L103.73355,209.76945480203278L109.49652499999999,214.51684093558762L115.2595,190.26519723505234L121.022475,177.2276615405497L126.78545,182.37947940215528L132.548425,178.04583007476143L138.31140000000002,161.0964488193582L144.074375,120.87729521497147L149.83735000000001,95.78366807771346L155.600325,80.73021047966523L161.3633,85.46303302942391L167.126275,74.53895887773365L172.88925,80.19734560823673L178.65222500000002,82.81690634036579L184.4152,72.95160435648665L190.178175,67.03247302832904L195.94115,72.20411390473674L201.704125,66.58399721748839L207.4671,63.211933340756616L213.23007500000003,61.1886972235348L218.99304999999998,76.45168253847152L224.75602500000002,86.57870406959557L230.519,112.71799513975589L236.28197500000002,128.11079830891458L242.04495,136.3772456529995L247.807925,133.0017319104719L253.5709,106.93950319457412L259.33387500000003,100.99446812833651L265.09685,97.42744712783855L270.859825,85.01339426538794L276.62280000000004,83.96188566859382L282.385775,73.63866984889518L288.14875,71.90320486580276L293.911725,66.40346137837344L299.67470000000003,63.10361528760973L305.437675,61.123707633761285L311.20065,63.81268907685535L316.963625,77.83222883160295L322.7266,75.00087871825184L328.489575,73.30206865030897L334.25255,70.34431515536494L340.01552499999997,65.46812755471802L345.7785,77.85625819041798L351.541475,78.50452710287948L357.30445000000003,88.3919470309757L363.067425,99.75208833766283L368.8304,116.26048377183884L374.593375,138.23244410926546L380.35635,157.81254338864068L386.119325,175.66675680241752L391.8823,188.44374816385843L397.64527499999997,201.69271132413456L403.40825,225.7652421790968L409.171225,227.10960595856238L414.9342,241.60730171976272L420.69717499999996,227.42653665272596L426.46015000000006,224.61715187350907L432.223125,227.23490650872083L437.98609999999996,216.15709775138635L443.74907500000006,207.3296432662164L449.51205000000004,196.79932442126832L455.275025,194.11574849891483L461.038,198.5826780938651L466.80097500000005,192.2780683947806L472.56395000000003,186.169148729176L478.326925,182.64918154519793L484.0899,180.97335508096492L489.85287500000004,178.65939766396355L495.61585,183.95871552145508L501.378825,188.5921523897961L507.1418,188.46452220310843L512.9047750000001,201.12363728614542L518.6677500000001,198.6003362178411L524.4307249999999,197.95866326916618L530.1937,199.60904411534585L535.956675,208.27557854064685L541.71965,212.54503854472313L547.482625,218.82856158837234L553.2456000000001,205.87944464533112L559.0085750000001,198.69151294104483L564.77155,205.7478326162645L570.534525,196.43177649283564L576.2975,192.29598897262446L582.060475,189.95990107588236L587.82345,196.55440218399096L593.586425,182.4834105411638L599.3494000000001,177.6754309400829L605.112375,185.83987394866514L610.87535,169.27007525749534L616.638325,162.81742681202422L622.4013,163.98584070259915L628.164275,160.47073519079026" style="fill: none;" fill="none"></path></g><g><path stroke="rgb(255, 112, 67)" stroke-width="2px" d="M57.62975,303.63017666156475L63.392725,297.90502380224376L69.15570000000001,271.8879413311298L74.91867500000001,265.9616387433057L80.68165,253.66044357754726L86.444625,252.65876403389944L92.2076,254.15403899251774L97.970575,261.7554838341509L103.73355,274.28020978008414L109.49652499999999,277.0154332094835L115.2595,260.1635047618587L121.022475,264.6374570620698L126.78545,263.87378515486535L132.548425,248.1014505836698L138.31140000000002,242.7768283312318L144.074375,249.92965271682496L149.83735000000001,248.48677943673263L155.600325,247.46888588280865L161.3633,239.43345815504276L167.126275,243.8787004355168L172.88925,249.75811878550277L178.65222500000002,250.1702613113764L184.4152,250.32062099165202L190.178175,250.79852870565406L195.94115,247.11141295419506L201.704125,245.09299817562407L207.4671,241.74964311625766L213.23007500000003,232.86208810426612L218.99304999999998,237.31879444512947L224.75602500000002,240.28358649375238L230.519,250.9551533117745L236.28197500000002,252.42540169786434L242.04495,251.86754720545883L247.807925,244.9420680653194L253.5709,234.89385427635656L259.33387500000003,227.00400479212698L265.09685,217.61778743257275L270.859825,190.08143863020751L276.62280000000004,186.85747678084263L282.385775,185.67910145154576L288.14875,186.13515317898558L293.911725,202.6337081873036L299.67470000000003,189.18407106234488L305.437675,196.20521009467797L311.20065,179.5600461741421L316.963625,166.66525551505424L322.7266,132.95300241947476L328.489575,104.39026003164753L334.25255,120.40030690750046L340.01552499999997,95.50172260583747L345.7785,99.9471844518203L351.541475,99.31908285971724L357.30445000000003,82.85298817734002L363.067425,101.27487278735782L368.8304,106.9003053299453L374.593375,125.58941692506258L380.35635,131.56903772828107L386.119325,118.48603802158226L391.8823,122.46085062432283L397.64527499999997,144.13343345151787L403.40825,153.93852160937251L409.171225,175.05788042167856L414.9342,183.68780517608417L420.69717499999996,199.07176180344206L426.46015000000006,216.9476709877519L432.223125,229.61167951572813L437.98609999999996,234.88393078635997L443.74907500000006,244.77651326870975L449.51205000000004,248.55205990589985L455.275025,251.4820051743091L461.038,253.9876640092204L466.80097500000005,254.57721442397423L472.56395000000003,257.0078664820964L478.326925,253.39856477545075L484.0899,246.1514480365069L489.85287500000004,245.87394722390985L495.61585,248.37975421738378L501.378825,249.6340063765841L507.1418,245.3465591510331L512.9047750000001,234.4387047213891L518.6677500000001,229.75491336581123L524.4307249999999,229.73602494256366L530.1937,214.31392265784586L535.956675,205.7875843639383L541.71965,197.61870446451684L547.482625,166.25737652486393L553.2456000000001,157.71442887277593L559.0085750000001,169.93788809289632L564.77155,146.54735119821078L570.534525,120.68840776106885L576.2975,114.28381388741053L582.060475,123.8164421786002L587.82345,123.91447773391795L593.586425,109.24099433265843L599.3494000000001,109.74151967651818L605.112375,106.94029937915309L610.87535,100.21956424287646L616.638325,108.98096931495661L622.4013,93.3024277428201L628.164275,90.29222587646126" style="fill: none;" fill="none"></path></g></g></g></g><g opacity="0.2"><g><g><g><path stroke="rgb(204, 51, 17)" stroke-width="2px" d="M57.62975,306.86538421924297L63.392725,283.9846135359544L69.15570000000001,238.1884652357835L74.91867500000001,269.14326923076925L80.68165,199.90384615384616L86.444625,250.6846185537485L92.2076,232.03384393545298L97.970575,210.22615162776066L103.73355,134.1173076923077L109.49652499999999,84.80768491304838L115.2595,133.26923816387472L121.022475,161.01346153846154L126.78545,144.29423076923075L132.548425,87.23076923076923L138.31140000000002,132.78460798997148L144.074375,111.4615458561824L149.83735000000001,68.33076923076925L155.600325,101.76923076923077L161.3633,115.82308431772083L167.126275,107.10000739464397L172.88925,105.64616124079777L178.65222500000002,153.38076923076923L184.4152,94.5L190.178175,110.49230769230769L195.94115,158.8326923076923L201.704125,197.72307692307692L207.4671,152.65384615384616L213.23007500000003,141.75L218.99304999999998,109.03846153846155L224.75602500000002,151.20000000000002L230.519,58.15384615384613L236.28197500000002,114.85384615384618L242.04495,58.15384615384613L247.807925,119.6999926053561L253.5709,58.15384615384613L259.33387500000003,73.17691568227917L265.09685,65.42307692307696L270.859825,60.57693047156704L276.62280000000004,139.0846227792593L282.385775,58.15384615384613L288.14875,58.15384615384613L293.911725,58.15384615384613L299.67470000000003,58.15384615384613L305.437675,126.48461538461541L311.20065,58.15384615384613L316.963625,196.55999556321365L322.7266,58.15384615384613L328.489575,78.50769230769231L334.25255,145.38461538461536L340.01552499999997,58.15384615384613L345.7785,58.15384615384613L351.541475,58.15384615384613L357.30445000000003,58.15384615384613L363.067425,58.15384615384613L368.8304,123.57692307692307L374.593375,58.15384615384613L380.35635,58.15384615384613L386.119325,58.15384615384613L391.8823,58.15384615384613L397.64527499999997,58.15384615384613L403.40825,58.15384615384613L409.171225,58.15384615384613L414.9342,58.15384615384613L420.69717499999996,58.15384615384613L426.46015000000006,58.15384615384613L432.223125,58.15384615384613L437.98609999999996,58.15384615384613L443.74907500000006,78.99230029766375L449.51205000000004,58.15384615384613L455.275025,58.15384615384613L461.038,58.15384615384613L466.80097500000005,58.15384615384613L472.56395000000003,58.15384615384613L478.326925,58.15384615384613L484.0899,58.15384615384613L489.85287500000004,58.15384615384613L495.61585,58.15384615384613L501.378825,58.15384615384613L507.1418,116.79230029766376L512.9047750000001,58.15384615384613L518.6677500000001,58.15384615384613L524.4307249999999,58.15384615384613L530.1937,58.15384615384613L535.956675,58.15384615384613L541.71965,58.15384615384613L547.482625,58.15384615384613L553.2456000000001,58.15384615384613L559.0085750000001,58.15384615384613L564.77155,58.15384615384613L570.534525,58.15384615384613L576.2975,58.15384615384613L582.060475,58.15384615384613L587.82345,58.15384615384613L593.586425,58.15384615384613L599.3494000000001,58.15384615384613L605.112375,58.15384615384613L610.87535,58.15384615384613L616.638325,58.15384615384613L622.4013,58.15384615384613L628.164275,58.15384615384613" style="fill: none;" fill="none"></path></g><g><path stroke="rgb(0, 119, 187)" stroke-width="2px" d="M57.62975,304.99615503457875L63.392725,292.883914067195L69.15570000000001,261.27692466148966L74.91867500000001,239.1576923076923L80.68165,267.3259615384615L86.444625,232.6153846153846L92.2076,245.94230399498574L97.970575,179.91346153846152L103.73355,193.65230325552133L109.49652499999999,221.56615606454702L115.2595,154.1076923076923L121.022475,157.7423076923077L126.78545,190.0903846153846L132.548425,171.55384615384617L138.31140000000002,135.69230029766376L144.074375,60.57693047156704L149.83735000000001,58.15384615384613L155.600325,58.15384615384613L161.3633,92.56154585618236L167.126275,58.15384615384613L172.88925,88.68461538461543L178.65222500000002,86.74616124079779L184.4152,58.15384615384613L190.178175,58.15384615384613L195.94115,79.96153846153845L201.704125,58.15384615384613L207.4671,58.15384615384613L213.23007500000003,58.15384615384613L218.99304999999998,99.34614645150992L224.75602500000002,101.76923076923077L230.519,151.9269230769231L236.28197500000002,151.20000000000002L242.04495,148.77691568227914L247.807925,127.93846153846155L253.5709,67.84616124079776L259.33387500000003,92.07691568227915L265.09685,92.07691568227915L270.859825,66.39231508695161L276.62280000000004,82.3846227792593L282.385775,58.15384615384613L288.14875,69.3000073946439L293.911725,58.15384615384613L299.67470000000003,58.15384615384613L305.437675,58.15384615384613L311.20065,67.84616124079776L316.963625,98.86153846153843L322.7266,70.75385354849004L328.489575,70.75385354849004L334.25255,65.9076849130484L340.01552499999997,58.15384615384613L345.7785,96.43845414381764L351.541475,79.47693047156702L357.30445000000003,103.22307692307692L363.067425,116.79230029766376L368.8304,141.02307692307693L374.593375,171.1903846153846L380.35635,187.18269230769232L386.119325,202.4480769230769L391.8823,207.60923520601713L397.64527499999997,221.56615606454702L403.40825,261.8740384615385L409.171225,229.12615162776066L414.9342,263.3538453615629L420.69717499999996,206.15538905217096L426.46015000000006,220.40307470468375L432.223125,231.16153846153847L437.98609999999996,199.54038461538462L443.74907500000006,194.08846153846153L449.51205000000004,181.00384615384613L455.275025,190.0903846153846L461.038,205.28307248629056L466.80097500000005,182.82115384615383L472.56395000000003,177.00576923076923L478.326925,177.36923076923077L484.0899,178.45961538461538L489.85287500000004,175.18846153846155L495.61585,191.9076923076923L501.378825,195.5423076923077L507.1418,188.27307692307693L512.9047750000001,220.11230991070087L518.6677500000001,194.8153846153846L524.4307249999999,196.99615384615385L530.1937,202.08461538461538L535.956675,221.27538017859825L541.71965,218.94922855083757L547.482625,228.25384615384615L553.2456000000001,186.45576923076925L559.0085750000001,187.9096153846154L564.77155,216.33231212909405L570.534525,182.4576923076923L576.2975,186.0923076923077L582.060475,186.45576923076925L587.82345,206.44615384615383L593.586425,161.37692307692308L599.3494000000001,170.46346153846153L605.112375,198.08653846153848L610.87535,144.4153772207407L616.638325,153.1384541438176L622.4013,165.73846153846154L628.164275,155.1980769230769" style="fill: none;" fill="none"></path></g><g><path stroke="rgb(255, 112, 67)" stroke-width="2px" d="M57.62975,303.63017666156475L63.392725,294.46993208665117L69.15570000000001,246.9115421588604L74.91867500000001,258.9923069000244L80.68165,237.60000316913312L86.444625,251.2730806203989L92.2076,256.2923061077411L97.970575,272.8384633871225L103.73355,292.751747747568L109.49652499999999,281.0769212282621L115.2595,235.03845784113958L121.022475,271.32403846153846L126.78545,262.7307708153358L132.548425,224.47384837223933L138.31140000000002,234.79615384615386L144.074375,260.6538445692796L149.83735000000001,246.32308009221003L155.600325,245.94230399498574L161.3633,227.38154067993165L167.126275,250.54615754347583L172.88925,258.5769238692063L178.65222500000002,250.78846153846155L184.4152,250.54615754347583L190.178175,251.51538461538462L195.94115,241.58076553344725L201.704125,242.0653846153846L207.4671,236.73461908193735L213.23007500000003,219.53076923076924L218.99304999999998,244.00384985116813L224.75602500000002,244.7307729280912L230.519,266.9625L236.28197500000002,254.6307739844689L242.04495,251.03076553344727L247.807925,234.5538498511681L253.5709,219.8215340247521L259.33387500000003,215.16923076923075L265.09685,203.53846153846152L270.859825,148.77691568227914L276.62280000000004,182.02153402475213L282.385775,183.91153846153847L288.14875,186.81923076923078L293.911725,227.38154067993165L299.67470000000003,169.00961538461536L305.437675,206.73691864013674L311.20065,154.59230029766377L316.963625,147.323069528433L322.7266,82.3846227792593L328.489575,61.54614645150991L334.25255,144.4153772207407L340.01552499999997,58.15384615384613L345.7785,106.6153772207407L351.541475,98.376930471567L357.30445000000003,58.15384615384613L363.067425,128.90769970233623L368.8304,115.33845414381761L374.593375,153.62308431772087L380.35635,140.53846893310546L386.119325,98.86153846153843L391.8823,128.423069528433L397.64527499999997,176.6423076923077L403.40825,168.64615384615382L409.171225,206.73691864013674L414.9342,196.6326923076923L420.69717499999996,222.14769674447868L426.46015000000006,243.7615347642165L432.223125,248.6076923076923L437.98609999999996,242.7923076923077L443.74907500000006,259.61538699223445L449.51205000000004,254.21537986168494L455.275025,255.87692307692305L461.038,257.74615226158727L466.80097500000005,255.46154004610503L472.56395000000003,260.6538445692796L478.326925,247.98461221548226L484.0899,235.28077292809118L489.85287500000004,245.45769600501427L495.61585,252.13846470759466L501.378825,251.51538461538462L507.1418,238.91538831270657L512.9047750000001,218.07692307692307L518.6677500000001,222.7292263324444L524.4307249999999,229.7076923076923L530.1937,191.18076923076922L535.956675,192.99807692307692L541.71965,185.36538461538464L547.482625,119.21538461538461L553.2456000000001,144.90000739464395L559.0085750000001,188.27307692307693L564.77155,111.4615458561824L570.534525,81.89999260535603L576.2975,104.67692307692306L582.060475,138.11538461538464L587.82345,124.06153106689453L593.586425,87.23076923076923L599.3494000000001,110.49230769230769L605.112375,102.73846893310548L610.87535,90.13846153846157L616.638325,122.12307692307692L622.4013,69.78461538461539L628.164275,85.77692307692308" style="fill: none;" fill="none"></path></g></g></g></g></g></g><g transform="translate(46, 378)" clip-path="url(#clip_1)"><clipPath id="clip_1"><rect width="691" height="21"></rect></clipPath><g><g><line x1="0" y1="0" x2="0" y2="5" style="visibility: inherit;" fill="rgb(0, 0, 0)" stroke="rgb(204, 204, 204)" stroke-width="1px"></line><line x1="57.62975" y1="0" x2="57.62975" y2="5" style="visibility: inherit;" fill="rgb(0, 0, 0)" stroke="rgb(204, 204, 204)" stroke-width="1px"></line><line x1="115.2595" y1="0" x2="115.2595" y2="5" style="visibility: inherit;" fill="rgb(0, 0, 0)" stroke="rgb(204, 204, 204)" stroke-width="1px"></line><line x1="172.88925" y1="0" x2="172.88925" y2="5" style="visibility: inherit;" fill="rgb(0, 0, 0)" stroke="rgb(204, 204, 204)" stroke-width="1px"></line><line x1="230.519" y1="0" x2="230.519" y2="5" style="visibility: inherit;" fill="rgb(0, 0, 0)" stroke="rgb(204, 204, 204)" stroke-width="1px"></line><line x1="288.14875" y1="0" x2="288.14875" y2="5" style="visibility: inherit;" fill="rgb(0, 0, 0)" stroke="rgb(204, 204, 204)" stroke-width="1px"></line><line x1="345.7785" y1="0" x2="345.7785" y2="5" style="visibility: inherit;" fill="rgb(0, 0, 0)" stroke="rgb(204, 204, 204)" stroke-width="1px"></line><line x1="403.40825" y1="0" x2="403.40825" y2="5" style="visibility: inherit;" fill="rgb(0, 0, 0)" stroke="rgb(204, 204, 204)" stroke-width="1px"></line><line x1="461.038" y1="0" x2="461.038" y2="5" style="visibility: inherit;" fill="rgb(0, 0, 0)" stroke="rgb(204, 204, 204)" stroke-width="1px"></line><line x1="518.6677500000001" y1="0" x2="518.6677500000001" y2="5" style="visibility: inherit;" fill="rgb(0, 0, 0)" stroke="rgb(204, 204, 204)" stroke-width="1px"></line><line x1="576.2975" y1="0" x2="576.2975" y2="5" style="visibility: inherit;" fill="rgb(0, 0, 0)" stroke="rgb(204, 204, 204)" stroke-width="1px"></line><line x1="633.92725" y1="0" x2="633.92725" y2="5" style="visibility: inherit;" fill="rgb(0, 0, 0)" stroke="rgb(204, 204, 204)" stroke-width="1px"></line><line x1="691.557" y1="0" x2="691.557" y2="5" style="visibility: inherit;" fill="rgb(0, 0, 0)" stroke="rgb(204, 204, 204)" stroke-width="1px"></line></g><g transform="translate(0, 8)"><text x="0" y="0" dx="0em" dy="0.95em" style="text-anchor: middle; visibility: hidden; font-family: &quot;Helvetica Neue&quot;, sans-serif; font-size: 12px; font-weight: 200;" fill="rgb(50, 49, 63)" stroke="none" stroke-width="1px">-10</text><text x="57.62975" y="0" dx="0em" dy="0.95em" style="text-anchor: middle; visibility: inherit; font-family: &quot;Helvetica Neue&quot;, sans-serif; font-size: 12px; font-weight: 200;" fill="rgb(50, 49, 63)" stroke="none" stroke-width="1px">0</text><text x="115.2595" y="0" dx="0em" dy="0.95em" style="text-anchor: middle; visibility: inherit; font-family: &quot;Helvetica Neue&quot;, sans-serif; font-size: 12px; font-weight: 200;" fill="rgb(50, 49, 63)" stroke="none" stroke-width="1px">10</text><text x="172.88925" y="0" dx="0em" dy="0.95em" style="text-anchor: middle; visibility: inherit; font-family: &quot;Helvetica Neue&quot;, sans-serif; font-size: 12px; font-weight: 200;" fill="rgb(50, 49, 63)" stroke="none" stroke-width="1px">20</text><text x="230.519" y="0" dx="0em" dy="0.95em" style="text-anchor: middle; visibility: inherit; font-family: &quot;Helvetica Neue&quot;, sans-serif; font-size: 12px; font-weight: 200;" fill="rgb(50, 49, 63)" stroke="none" stroke-width="1px">30</text><text x="288.14875" y="0" dx="0em" dy="0.95em" style="text-anchor: middle; visibility: inherit; font-family: &quot;Helvetica Neue&quot;, sans-serif; font-size: 12px; font-weight: 200;" fill="rgb(50, 49, 63)" stroke="none" stroke-width="1px">40</text><text x="345.7785" y="0" dx="0em" dy="0.95em" style="text-anchor: middle; visibility: inherit; font-family: &quot;Helvetica Neue&quot;, sans-serif; font-size: 12px; font-weight: 200;" fill="rgb(50, 49, 63)" stroke="none" stroke-width="1px">50</text><text x="403.40825" y="0" dx="0em" dy="0.95em" style="text-anchor: middle; visibility: inherit; font-family: &quot;Helvetica Neue&quot;, sans-serif; font-size: 12px; font-weight: 200;" fill="rgb(50, 49, 63)" stroke="none" stroke-width="1px">60</text><text x="461.038" y="0" dx="0em" dy="0.95em" style="text-anchor: middle; visibility: inherit; font-family: &quot;Helvetica Neue&quot;, sans-serif; font-size: 12px; font-weight: 200;" fill="rgb(50, 49, 63)" stroke="none" stroke-width="1px">70</text><text x="518.6677500000001" y="0" dx="0em" dy="0.95em" style="text-anchor: middle; visibility: inherit; font-family: &quot;Helvetica Neue&quot;, sans-serif; font-size: 12px; font-weight: 200;" fill="rgb(50, 49, 63)" stroke="none" stroke-width="1px">80</text><text x="576.2975" y="0" dx="0em" dy="0.95em" style="text-anchor: middle; visibility: inherit; font-family: &quot;Helvetica Neue&quot;, sans-serif; font-size: 12px; font-weight: 200;" fill="rgb(50, 49, 63)" stroke="none" stroke-width="1px">90</text><text x="633.92725" y="0" dx="0em" dy="0.95em" style="text-anchor: middle; visibility: inherit; font-family: &quot;Helvetica Neue&quot;, sans-serif; font-size: 12px; font-weight: 200;" fill="rgb(50, 49, 63)" stroke="none" stroke-width="1px">100</text><text x="691.557" y="0" dx="0em" dy="0.95em" style="text-anchor: middle; visibility: hidden; font-family: &quot;Helvetica Neue&quot;, sans-serif; font-size: 12px; font-weight: 200;" fill="rgb(50, 49, 63)" stroke="none" stroke-width="1px">110</text></g><line x1="0" y1="0" x2="691.557" y2="0" fill="rgb(0, 0, 0)" stroke="rgb(204, 204, 204)" stroke-width="1px"></line></g></g></g></g></svg>